# xmcd CD database file
#
# Track frame offsets:
#	150
#	33085
#	62980
#	107776
#	131356
#	151380
#	182353
#	219750
#	253692
#	281637
#
# Disc length: 4480 seconds
#
# Revision: 0
# Processed by: cddbd v1.5.2PL0 Copyright (c) Steve Scherf et al.
# Submitted via: CDex 1.70beta2
#
DISCID=83117e0a
DTITLE=Stefan Wagner Group - Listen Well
DYEAR=2004
DGENRE=Jazz
TTITLE0=You're So Cool
TTITLE1=Weizenfelder
TTITLE2=Nine To Six
TTITLE3=Less Fear, More Hope
TTITLE4=Smiling Boy (For Clemens)
TTITLE5=A Very Special Place
TTITLE6=Bernadette
TTITLE7=Donaukanal
TTITLE8=Waltz for Rebecca
TTITLE9=New Atlantis
EXTD=YEAR: 2004
EXTT0=
EXTT1=
EXTT2=
EXTT3=
EXTT4=
EXTT5=
EXTT6=
EXTT7=
EXTT8=
EXTT9=
PLAYORDER=
